<?xml version="1.0" encoding="UTF-8"?>
<svg id="Layer_1" xmlns="http://www.w3.org/2000/svg" version="1.1" viewBox="0 0 1366 308">
  <!-- Generator: Adobe Illustrator 30.1.0, SVG Export Plug-In . SVG Version: 2.1.1 Build 136)  -->
  <defs>
    <style>
      .st0 {
        fill: #0378f7;
      }

      .st1 {
        fill: #fff;
      }
    </style>
  </defs>
  <path class="st1" d="M96,176.68h34.55c.25,12.08,12.18,21.99,28.09,21.99s25.61-7.73,25.61-19.57c0-9.18-6.96-15.71-21.63-20.06l-20.88-5.8c-37.54-9.67-44.25-31.65-44.25-46.63,0-29.72,26.35-49.53,59.17-49.53s57.18,19.09,57.18,50.74h-34.55c0-11.84-8.45-21.02-23.37-21.02-13.42,0-23.62,7.97-23.62,19.09,0,4.11,1.24,12.8,19.14,17.64l19.14,5.32c25.85,7.01,48.48,20.3,48.48,48.57,0,33.1-29.09,50.5-61.4,50.5-36.54,0-61.65-21.75-61.65-51.22v-.02Z"/>
  <path class="st1" d="M569.7,56.21v169.45h-32.56v-14.42c-8.2,11.43-24.36,16.66-37.29,16.66-29.83,0-56.93-23.12-56.93-60.41s27.1-60.41,56.93-60.41c13.42,0,29.09,4.97,37.29,16.66V56.21h32.56ZM536.14,167.49c0-17.9-14.91-29.83-30.08-29.83-16.41,0-30.08,12.68-30.08,29.83s13.67,30.08,30.08,30.08,30.08-12.43,30.08-30.08Z"/>
  <path class="st1" d="M592.14,74.73c0-10.94,9.45-19.39,20.63-19.39s20.63,8.45,20.63,19.39-9.2,19.64-20.63,19.64-20.63-8.7-20.63-19.64Z"/>
  <rect class="st1" x="596.61" y="109.82" width="32.57" height="115.84"/>
  <path class="st1" d="M648.67,167.49c0-36.79,29.33-60.66,62.4-60.66s62.4,23.87,62.4,60.66-29.33,60.41-62.4,60.41-62.4-23.87-62.4-60.41ZM740.4,167.49c0-18.15-13.17-30.33-29.33-30.33s-29.33,12.18-29.33,30.33,13.17,30.08,29.33,30.08,29.33-12.18,29.33-30.08Z"/>
  <path class="st1" d="M356.73,109.82v60.78c0,12.79,2.06,26.81,18.28,26.81s18.28-14.01,18.28-26.81v-60.78h31.99v66.03c0,32.67-16.91,49.81-50.27,49.81s-50.27-17.14-50.27-49.81v-66.03s31.99,0,31.99,0Z"/>
  <path class="st1" d="M921.71,63.44v162.22h-31.07l-62.15-98.33v98.33h-34.55V63.44h32.07l61.16,95.79V63.44h34.55,0Z"/>
  <path class="st0" d="M941.02,167.49c0-36.79,29.33-60.66,62.4-60.66s62.4,23.87,62.4,60.66-29.33,60.41-62.4,60.41-62.4-23.87-62.4-60.41ZM1032.75,167.49c0-18.15-13.17-30.33-29.33-30.33s-29.33,12.18-29.33,30.33,13.17,30.08,29.33,30.08,29.33-12.18,29.33-30.08Z"/>
  <path class="st1" d="M1253.47,109.82l-41.02,115.84h-27.84l-23.87-75.32-23.12,75.32h-27.84l-42.26-115.84h35.3l21.88,70.6,22.12-70.6h27.35l22.13,70.6,21.88-70.6h35.3-.01Z"/>
  <path class="st0" d="M1246.57,207.77c0-11.44,9.45-19.89,20.63-19.89s21.13,8.45,21.13,19.89-9.7,20.14-21.13,20.14-20.63-8.45-20.63-20.14Z"/>
  <path class="st1" d="M249.95,177.2v-42.51h-20.88v-25.11h20.88v-26.1l32.57-9.94v36.05h24.36v25.11h-24.36v40.52c.25,13.18,5.47,19.89,18.4,19.89h7.46v30.33h-11.44c-32.81,0-46.98-14.17-46.98-48.23h-.01Z"/>
</svg>